Coordinates
version=1
nRows=14
nColumns=24
inDegrees=yes

Units are S.I. units (second, meters, Newtons, ...)
Angles are in degrees.

endheader
time	pelvis_tilt	pelvis_list	pelvis_rotation	pelvis_tx	pelvis_ty	pelvis_tz	hip_flexion_r	hip_adduction_r	hip_rotation_r	knee_angle_r	ankle_angle_r	subtalar_angle_r	mtp_angle_r	hip_flexion_l	hip_adduction_l	hip_rotation_l	knee_angle_l	ankle_angle_l	subtalar_angle_l	mtp_angle_l	lumbar_extension	lumbar_bending	lumbar_rotation
      0.57900000	      2.91526313	      1.19309645	     -4.68456250	     -0.77520233	      0.98780007	      0.30869508	     18.25563354	     -0.02508636	     -0.47893389	      3.39136045	     -0.74566101	     -2.46964028	      0.48636821	    -23.58468583	      7.12714435	      6.08400798	     -0.08555624	     11.86900051	    -13.03942440	     -1.02254945	    -14.04481040	      7.66421803	     -9.35112230
      0.58316667	      2.82497590	      1.06489522	     -4.64797257	     -0.76955069	      0.98703346	      0.30903467	     18.35204079	      0.15915492	     -0.26083592	      3.13517359	     -0.96514613	     -2.62387834	      3.01208474	    -23.55002020	      6.98948419	      5.90313392	     -0.73185766	     12.40515691	    -12.49721002	     -6.35116061	    -13.92864410	      7.85492362	     -9.38642194
      0.58733333	      2.83433540	      0.85595215	     -4.65394685	     -0.76380902	      0.98643721	      0.30946141	     18.28515347	      0.43149292	      0.11547604	      2.91100936	     -1.29531510	     -2.99867596	      3.04823413	    -23.68545712	      6.78921021	      5.72930555	     -1.23564253	     12.54334956	    -12.29830114	     -6.33412840	    -13.94711334	      8.14093222	     -9.40126539
      0.59150000	      2.77216531	      0.66383781	     -4.65501990	     -0.75807267	      0.98578731	      0.30989082	     18.34466046	      0.69185930	      0.45589997	      2.52743980	     -1.59119335	     -3.33997298	      3.09310102	    -23.68646146	      6.60027093	      5.49818820	     -1.86312043	     12.79817366	    -11.94631112	     -6.28508335	    -13.88096668	      8.39743533	     -9.33745625
      0.59566667	      2.73504506	      0.44765869	     -4.65571884	     -0.75230374	      0.98521498	      0.31033791	     18.38263833	      0.97588004	      0.79341649	      2.07313665	     -1.93079266	     -3.72016709	      3.14079246	    -23.69757850	      6.38790756	      5.23260276	     -2.52846689	     13.03752555	    -11.57780873	     -6.20580680	    -13.84668336	      8.68511080	     -9.29158782
      0.59983333	      2.67280038	      0.22335128	     -4.65702953	     -0.74648807	      0.98465495	      0.31079988	     18.45866954	      1.27136033	      1.12987000	      1.54577567	     -2.30453191	     -4.13180050	      3.18725200	    -23.67103954	      6.16536274	      4.98187867	     -3.21835685	     13.23558490	    -11.24004132	     -6.10045300	    -13.78600721	      8.97445217	     -9.23340198
      0.60400000	      2.64109481	     -0.01657219	     -4.66082652	     -0.74065205	      0.98416794	      0.31129083	     18.50680644	      1.58413196	      1.46441912	      0.96741077	     -2.71153693	     -4.59406887	      3.23733816	    -23.65498544	      5.92863268	      4.68556281	     -3.95950130	     13.42964227	    -10.87390286	     -5.95534289	    -13.75662755	      9.28624194	     -9.16604685
      0.60816667	      2.57188856	     -0.26016563	     -4.66573802	     -0.73477114	      0.98368101	      0.31179061	     18.61303842	      1.90486309	      1.77907567	      0.31439396	     -3.13641438	     -5.06011510	      3.28250034	    -23.59127553	      5.68615266	      4.41763011	     -4.71178984	     13.56359992	    -10.56407575	     -5.79046948	    -13.68833157	      9.59867255	     -9.09953057
      0.61233333	      2.53884429	     -0.50911921	     -4.67032027	     -0.72886428	      0.98327824	      0.31230443	     18.68279364	      2.23018018	      2.08184545	     -0.37033830	     -3.58761114	     -5.57526630	      3.33148128	    -23.53389758	      5.43852478	      4.09697760	     -5.53014628	     13.69644871	    -10.20757830	     -5.57195920	    -13.64436178	      9.92860574	     -9.02737877
      0.61650000	      2.48751502	     -0.76645273	     -4.67273415	     -0.72292805	      0.98288639	      0.31282918	     18.78515201	      2.56716463	      2.35922908	     -1.10992796	     -4.02999967	     -6.09152307	      3.38284857	    -23.44176470	      5.18057967	      3.79573722	     -6.38703537	     13.78642857	     -9.88419613	     -5.29447199	    -13.58928272	     10.26397474	     -8.95240822
      0.62066667	      2.46234913	     -1.04643874	     -4.66656626	     -0.71695255	      0.98257432	      0.31336949	     18.86046375	      2.92521594	      2.59995134	     -1.88083225	     -4.44458421	     -6.62513021	      3.45505899	    -23.35654642	      4.89228910	      3.45265464	     -7.28576361	     13.87133660	     -9.50538173	     -4.83359607	    -13.57532404	     10.61807527	     -8.87701114
      0.62483333	      2.37166918	     -1.29139120	     -4.68599374	     -0.71094987	      0.98220118	      0.31393355	     19.03683873	      3.25956764	      2.83526484	     -2.71863425	     -4.88665731	     -7.10536271	      3.48591884	    -23.20137178	      4.65151088	      3.20201950	     -8.17785333	     13.78492573	     -9.35719080	     -4.54660942	    -13.45270494	     10.93897373	     -8.79060579
      0.62900000	      2.40582926	     -1.61643038	     -4.71398694	     -0.70488274	      0.98203201	      0.31454612	     19.04855113	      3.67162052	      3.04357651	     -3.52763821	     -5.31145994	     -7.58089298	      3.61191732	    -23.15691979	      4.32354038	      2.70743414	     -9.12183772	     13.79339424	     -8.85666398	     -3.26222189	    -13.51183357	     11.35084811	     -8.72556996
      0.63316667	      2.33299383	     -1.87945904	     -4.67588802	     -0.69883946	      0.98177527	      0.31509274	     19.18575823	      4.01266276	      3.22921914	     -4.36320745	     -5.67133647	     -8.22133820	      3.68069220	    -22.94686677	      4.03239795	      2.44677293	    -10.16131907	     13.69432103	     -8.62882967	     -2.18405291	    -13.41515723	     11.68833605	     -8.65978467
